<mxfile host="app.diagrams.net" agent="Mozilla/5.0 (Macintosh; Intel Mac OS X 10_15_7) AppleWebKit/605.1.15 (KHTML, like Gecko) Version/17.4 Safari/605.1.15" version="24.9.0">
  <diagram name="第 1 页" id="4Q_Ok9NN9GHN0MKbsBlJ">
    <mxGraphModel dx="984" dy="667" grid="0" gridSize="10" guides="1" tooltips="1" connect="1" arrows="1" fold="1" page="1" pageScale="1" pageWidth="827" pageHeight="1169" background="#ffffff" math="0" shadow="0">
      <root>
        <mxCell id="0" />
        <mxCell id="1" parent="0" />
        <mxCell id="ClJ-4-9c73uhwvwfBQ76-9" value="" style="edgeStyle=orthogonalEdgeStyle;rounded=0;orthogonalLoop=1;jettySize=auto;html=1;" parent="1" source="-_imm6A9Cae9ptgmtU05-10" target="-_imm6A9Cae9ptgmtU05-12" edge="1">
          <mxGeometry relative="1" as="geometry" />
        </mxCell>
        <mxCell id="-_imm6A9Cae9ptgmtU05-10" value="&lt;meta charset=&quot;utf-8&quot;&gt;&lt;span style=&quot;font-style: normal; font-variant-caps: normal; font-weight: 400; letter-spacing: normal; orphans: auto; text-align: start; text-indent: 0px; text-transform: none; white-space: normal; widows: auto; word-spacing: 0px; -webkit-text-stroke-width: 0px; text-decoration: none; caret-color: rgb(0, 0, 0); color: rgb(0, 0, 0); font-size: medium; float: none; display: inline !important;&quot;&gt;生成随机点并绘制&lt;/span&gt;" style="rounded=1;whiteSpace=wrap;html=1;" parent="1" vertex="1">
          <mxGeometry x="345" y="270" width="110" height="40" as="geometry" />
        </mxCell>
        <mxCell id="ClJ-4-9c73uhwvwfBQ76-16" style="edgeStyle=orthogonalEdgeStyle;rounded=0;orthogonalLoop=1;jettySize=auto;html=1;exitX=0.5;exitY=1;exitDx=0;exitDy=0;entryX=0.5;entryY=0;entryDx=0;entryDy=0;" parent="1" source="-_imm6A9Cae9ptgmtU05-12" target="-_imm6A9Cae9ptgmtU05-13" edge="1">
          <mxGeometry relative="1" as="geometry" />
        </mxCell>
        <mxCell id="ClJ-4-9c73uhwvwfBQ76-18" value="" style="edgeStyle=orthogonalEdgeStyle;rounded=0;orthogonalLoop=1;jettySize=auto;html=1;" parent="1" source="-_imm6A9Cae9ptgmtU05-12" target="-_imm6A9Cae9ptgmtU05-14" edge="1">
          <mxGeometry relative="1" as="geometry" />
        </mxCell>
        <mxCell id="-_imm6A9Cae9ptgmtU05-12" value="&lt;meta charset=&quot;utf-8&quot;&gt;&lt;span style=&quot;font-style: normal; font-variant-caps: normal; font-weight: 400; letter-spacing: normal; orphans: auto; text-align: start; text-indent: 0px; text-transform: none; white-space: normal; widows: auto; word-spacing: 0px; -webkit-text-stroke-width: 0px; text-decoration: none; caret-color: rgb(0, 0, 0); color: rgb(0, 0, 0); font-size: medium; float: none; display: inline !important;&quot;&gt;检查点数是否小于等于 3&lt;/span&gt;" style="rhombus;whiteSpace=wrap;html=1;" parent="1" vertex="1">
          <mxGeometry x="315" y="340" width="170" height="80" as="geometry" />
        </mxCell>
        <mxCell id="ClJ-4-9c73uhwvwfBQ76-17" style="edgeStyle=orthogonalEdgeStyle;rounded=0;orthogonalLoop=1;jettySize=auto;html=1;exitX=0.5;exitY=1;exitDx=0;exitDy=0;entryX=0.5;entryY=0;entryDx=0;entryDy=0;" parent="1" source="-_imm6A9Cae9ptgmtU05-13" target="ClJ-4-9c73uhwvwfBQ76-2" edge="1">
          <mxGeometry relative="1" as="geometry" />
        </mxCell>
        <mxCell id="-_imm6A9Cae9ptgmtU05-13" value="&lt;span style=&quot;text-align: start; font-size: medium;&quot;&gt;递归查找最近点对&lt;/span&gt;" style="rounded=1;whiteSpace=wrap;html=1;" parent="1" vertex="1">
          <mxGeometry x="352.5" y="450" width="95" height="40" as="geometry" />
        </mxCell>
        <mxCell id="ClJ-4-9c73uhwvwfBQ76-27" style="edgeStyle=orthogonalEdgeStyle;rounded=0;orthogonalLoop=1;jettySize=auto;html=1;exitX=0.5;exitY=1;exitDx=0;exitDy=0;entryX=1;entryY=0.5;entryDx=0;entryDy=0;" parent="1" source="-_imm6A9Cae9ptgmtU05-14" target="ClJ-4-9c73uhwvwfBQ76-3" edge="1">
          <mxGeometry relative="1" as="geometry">
            <Array as="points">
              <mxPoint x="570" y="610" />
              <mxPoint x="447" y="610" />
            </Array>
          </mxGeometry>
        </mxCell>
        <mxCell id="-_imm6A9Cae9ptgmtU05-14" value="&lt;font style=&quot;font-size: 18px;&quot;&gt;暴力法比较&lt;/font&gt;" style="rounded=1;whiteSpace=wrap;html=1;" parent="1" vertex="1">
          <mxGeometry x="520" y="355" width="100" height="50" as="geometry" />
        </mxCell>
        <mxCell id="ClJ-4-9c73uhwvwfBQ76-2" value="&lt;div style=&quot;text-align: start;&quot;&gt;&lt;font size=&quot;3&quot;&gt;合并结果&lt;/font&gt;&lt;/div&gt;" style="rounded=1;whiteSpace=wrap;html=1;" parent="1" vertex="1">
          <mxGeometry x="352.5" y="520" width="95" height="40" as="geometry" />
        </mxCell>
        <mxCell id="ClJ-4-9c73uhwvwfBQ76-23" style="edgeStyle=orthogonalEdgeStyle;rounded=0;orthogonalLoop=1;jettySize=auto;html=1;exitX=0.5;exitY=1;exitDx=0;exitDy=0;entryX=0.5;entryY=0;entryDx=0;entryDy=0;" parent="1" source="ClJ-4-9c73uhwvwfBQ76-3" target="ClJ-4-9c73uhwvwfBQ76-5" edge="1">
          <mxGeometry relative="1" as="geometry" />
        </mxCell>
        <mxCell id="ClJ-4-9c73uhwvwfBQ76-3" value="&lt;font style=&quot;font-size: 14px;&quot;&gt;距离最短点的坐标&lt;/font&gt;" style="shape=parallelogram;perimeter=parallelogramPerimeter;whiteSpace=wrap;html=1;fixedSize=1;" parent="1" vertex="1">
          <mxGeometry x="342.5" y="589" width="115" height="35" as="geometry" />
        </mxCell>
        <mxCell id="ClJ-4-9c73uhwvwfBQ76-4" value="&lt;font style=&quot;font-size: 16px;&quot;&gt;开始&lt;/font&gt;" style="ellipse;whiteSpace=wrap;html=1;" parent="1" vertex="1">
          <mxGeometry x="355" y="196" width="90" height="40" as="geometry" />
        </mxCell>
        <mxCell id="ClJ-4-9c73uhwvwfBQ76-5" value="&lt;font size=&quot;3&quot;&gt;结束&lt;/font&gt;" style="ellipse;whiteSpace=wrap;html=1;" parent="1" vertex="1">
          <mxGeometry x="355" y="650" width="90" height="40" as="geometry" />
        </mxCell>
        <mxCell id="ClJ-4-9c73uhwvwfBQ76-14" value="" style="edgeStyle=orthogonalEdgeStyle;rounded=0;orthogonalLoop=1;jettySize=auto;html=1;" parent="1" edge="1">
          <mxGeometry relative="1" as="geometry">
            <mxPoint x="400" y="238" as="sourcePoint" />
            <mxPoint x="400" y="270" as="targetPoint" />
            <Array as="points">
              <mxPoint x="400" y="238" />
            </Array>
          </mxGeometry>
        </mxCell>
        <mxCell id="ClJ-4-9c73uhwvwfBQ76-21" style="edgeStyle=orthogonalEdgeStyle;rounded=0;orthogonalLoop=1;jettySize=auto;html=1;entryX=0.5;entryY=0;entryDx=0;entryDy=0;" parent="1" edge="1">
          <mxGeometry relative="1" as="geometry">
            <mxPoint x="400" y="559" as="sourcePoint" />
            <mxPoint x="399.71" y="589" as="targetPoint" />
          </mxGeometry>
        </mxCell>
      </root>
    </mxGraphModel>
  </diagram>
</mxfile>
